<?xml version="1.0"?>
<svg width="42" height="34" xmlns="http://www.w3.org/2000/svg" xmlns:svg="http://www.w3.org/2000/svg">
 <g class="layer">
  <title>Layer 1</title>
  <path clip-rule="evenodd" d="m14.09,0.66c-2.85,-1.23 -6.12,0.84 -6.12,4l0,8.75c0,6.4 4.38,11.75 10.25,13.09c1.01,0.38 1.32,0.89 1.36,1.3l0,0.09l0,0l0,0.01l0,0.08c-0.01,0.25 -0.12,0.59 -0.43,0.87l-3.21,0c-0.79,0 -1.43,0.64 -1.43,1.42c0,0.16 0.03,0.32 0.08,0.46l-1.57,0c-0.79,0 -1.43,0.64 -1.43,1.44c0,0.79 0.64,1.43 1.43,1.43l15.74,0c0.79,0 1.43,-0.64 1.43,-1.43c0,-0.8 -0.64,-1.44 -1.43,-1.44l-1.3,0c0.05,-0.14 0.08,-0.3 0.08,-0.46c0,-0.78 -0.64,-1.42 -1.43,-1.42l-3.26,0c-0.28,-0.23 -0.43,-0.5 -0.48,-0.74l0,-0.28c0.08,-0.46 0.51,-1.03 1.86,-1.39c5.72,-1.44 9.97,-6.73 9.97,-13.03l0,-8.75c0,-3.16 -3.27,-5.23 -6.11,-4c-2.66,1.14 -5.5,2.18 -7,2.18c-1.51,0 -4.35,-1.04 -7,-2.18zm-9.74,15.71c-1.73,-0.9 -2.67,-2.92 -2.15,-4.88c0.11,-0.4 0.52,-0.64 0.92,-0.53l0.14,0.04c1.2,0.33 2.14,1.15 2.67,2.18c0.35,0.21 0.58,0.59 0.57,1.02c-0.01,1 0.15,2.71 0.71,4.45c0.56,1.75 1.48,3.41 2.88,4.47c0.5,0.39 0.6,1.11 0.21,1.61c-0.08,0.11 -0.18,0.21 -0.29,0.28c-0.95,1.83 -3.14,2.69 -5.12,1.92c-0.38,-0.15 -0.58,-0.58 -0.43,-0.97l0.11,-0.3c0.44,-1.17 1.34,-2.02 2.42,-2.42c-0.31,-0.4 -0.59,-0.82 -0.83,-1.26c-1.9,0.36 -3.84,-0.64 -4.6,-2.51c-0.16,-0.39 0.02,-0.83 0.4,-0.99l0.15,-0.07c0.85,-0.36 1.75,-0.43 2.58,-0.23c-0.15,-0.63 -0.26,-1.24 -0.34,-1.81zm31.27,-3.12c-0.3,0.21 -0.49,0.56 -0.48,0.95c0.01,1 -0.15,2.71 -0.71,4.45c-0.56,1.75 -1.48,3.41 -2.88,4.47c-0.5,0.39 -0.6,1.11 -0.21,1.61c0.1,0.13 0.22,0.24 0.35,0.31c0.96,1.81 3.14,2.66 5.1,1.89c0.38,-0.15 0.58,-0.58 0.43,-0.97l-0.11,-0.3c-0.44,-1.18 -1.36,-2.04 -2.45,-2.43c0.32,-0.42 0.6,-0.85 0.85,-1.3c1.98,0.5 4.05,-0.51 4.85,-2.46c0.16,-0.39 -0.02,-0.83 -0.41,-0.99l-0.15,-0.07c-0.95,-0.41 -1.96,-0.44 -2.87,-0.15c0.17,-0.68 0.29,-1.34 0.37,-1.96c1.74,-0.96 2.63,-3.06 2.01,-5.02c-0.12,-0.4 -0.54,-0.62 -0.94,-0.49l-0.14,0.05c-1.22,0.4 -2.15,1.3 -2.61,2.41z" fill="#ffffff" fill-rule="evenodd" id="svg_1"/>
 </g>
</svg>